<svg xmlns="http://www.w3.org/2000/svg" xmlns:xlink="http://www.w3.org/1999/xlink" width="40" zoomAndPan="magnify" viewBox="0 0 30 30.000001" height="40" preserveAspectRatio="xMidYMid meet" version="1.0"><defs><clipPath id="cf7ccf5f50"><path d="M 3.386719 5 L 22 5 L 22 26.058594 L 3.386719 26.058594 Z M 3.386719 5 " clip-rule="nonzero"/></clipPath><clipPath id="3e73ef3cc9"><path d="M 10 2.832031 L 26.613281 2.832031 L 26.613281 19 L 10 19 Z M 10 2.832031 " clip-rule="nonzero"/></clipPath></defs><g clip-path="url(#cf7ccf5f50)"><path fill="#ffffff" d="M 4.382812 18.0625 C 4.355469 18.144531 4.335938 18.226562 4.324219 18.308594 C 4.246094 18.804688 4.382812 19.3125 4.699219 19.703125 L 5.382812 20.554688 C 5.792969 21.0625 6.453125 21.3125 7.101562 21.195312 C 7.277344 21.765625 7.71875 22.226562 8.292969 22.414062 L 9.316406 22.753906 C 9.804688 22.917969 10.351562 22.867188 10.804688 22.625 C 11.148438 22.953125 11.605469 23.140625 12.089844 23.140625 L 13.070312 23.140625 C 13.414062 23.140625 13.753906 23.042969 14.046875 22.859375 C 14.339844 23.042969 14.679688 23.140625 15.023438 23.140625 L 16.003906 23.140625 C 16.460938 23.140625 16.890625 22.976562 17.226562 22.683594 C 17.558594 22.976562 17.992188 23.140625 18.449219 23.140625 L 19.425781 23.140625 C 19.832031 23.140625 20.199219 23.007812 20.503906 22.792969 L 20.503906 23.335938 C 20.503906 24.410156 19.632812 25.28125 18.558594 25.28125 L 12.042969 25.28125 C 8.222656 25.28125 4.964844 22.554688 4.285156 18.757812 C 4.253906 18.640625 4.230469 18.339844 4.210938 17.957031 C 4.265625 17.996094 4.320312 18.03125 4.382812 18.0625 Z M 3.53125 18.929688 C 4.265625 23.058594 7.847656 26.058594 12.042969 26.058594 L 18.558594 26.058594 C 20.0625 26.058594 21.28125 24.835938 21.28125 23.335938 L 21.28125 21.390625 L 21.273438 21.390625 C 21.277344 21.355469 21.28125 21.328125 21.28125 21.292969 C 21.28125 20.273438 20.449219 19.445312 19.425781 19.445312 L 18.449219 19.445312 C 17.992188 19.445312 17.558594 19.609375 17.226562 19.902344 C 16.890625 19.609375 16.460938 19.445312 16.003906 19.445312 L 15.023438 19.445312 C 14.679688 19.445312 14.339844 19.542969 14.046875 19.726562 C 13.753906 19.542969 13.414062 19.445312 13.070312 19.445312 L 12.089844 19.445312 C 11.789062 19.445312 11.503906 19.515625 11.242188 19.65625 C 11.035156 19.445312 10.785156 19.289062 10.507812 19.199219 L 9.484375 18.859375 C 9.195312 18.761719 8.886719 18.738281 8.582031 18.789062 C 8.496094 18.523438 8.347656 18.28125 8.144531 18.078125 L 7.375 17.3125 C 7.265625 17.203125 7.136719 17.109375 6.996094 17.03125 C 7.066406 16.835938 7.101562 16.636719 7.101562 16.429688 L 7.101562 15.457031 C 7.101562 15.148438 7.015625 14.847656 6.867188 14.578125 C 8.304688 13.183594 10.089844 12.441406 12.042969 12.441406 L 13.503906 12.441406 L 13.503906 11.664062 L 12.042969 11.664062 C 10.222656 11.664062 8.535156 12.25 7.101562 13.355469 L 7.101562 12.539062 C 7.101562 12.335938 7.066406 12.132812 6.996094 11.9375 C 7.136719 11.863281 7.265625 11.765625 7.375 11.65625 L 8.144531 10.890625 C 8.347656 10.691406 8.496094 10.445312 8.582031 10.179688 C 8.882812 10.234375 9.195312 10.207031 9.484375 10.109375 L 10.503906 9.773438 C 10.785156 9.679688 11.035156 9.523438 11.242188 9.316406 C 11.503906 9.453125 11.789062 9.523438 12.089844 9.523438 L 13.070312 9.523438 C 13.414062 9.523438 13.753906 9.425781 14.046875 9.242188 C 14.339844 9.425781 14.679688 9.523438 15.023438 9.523438 L 16.003906 9.523438 C 16.269531 9.523438 16.527344 9.46875 16.769531 9.359375 L 16.449219 8.652344 C 16.308594 8.714844 16.160156 8.746094 16.003906 8.746094 L 15.023438 8.746094 C 14.761719 8.746094 14.507812 8.644531 14.304688 8.464844 C 14.160156 8.335938 13.933594 8.332031 13.785156 8.464844 C 13.585938 8.644531 13.332031 8.746094 13.070312 8.746094 L 12.089844 8.746094 C 11.777344 8.746094 11.546875 8.609375 11.40625 8.492188 C 11.320312 8.425781 11.210938 8.394531 11.101562 8.410156 C 10.988281 8.425781 10.894531 8.492188 10.832031 8.582031 C 10.691406 8.800781 10.496094 8.957031 10.261719 9.035156 L 9.238281 9.371094 C 8.984375 9.457031 8.707031 9.449219 8.4375 9.328125 C 8.320312 9.273438 8.183594 9.285156 8.074219 9.351562 C 7.964844 9.417969 7.894531 9.535156 7.890625 9.664062 C 7.878906 9.925781 7.777344 10.160156 7.597656 10.339844 L 6.828125 11.101562 C 6.703125 11.226562 6.550781 11.3125 6.367188 11.363281 C 6.246094 11.394531 6.148438 11.480469 6.101562 11.601562 C 6.058594 11.71875 6.074219 11.847656 6.140625 11.953125 C 6.257812 12.128906 6.320312 12.332031 6.320312 12.539062 L 6.320312 13.511719 C 6.320312 13.769531 6.222656 14.023438 6.039062 14.222656 C 5.90625 14.371094 5.90625 14.597656 6.039062 14.746094 C 6.222656 14.945312 6.320312 15.199219 6.320312 15.457031 L 6.320312 16.429688 C 6.320312 16.636719 6.257812 16.839844 6.140625 17.015625 C 6.074219 17.121094 6.058594 17.253906 6.101562 17.371094 C 6.148438 17.488281 6.246094 17.574219 6.367188 17.609375 C 6.550781 17.65625 6.703125 17.742188 6.828125 17.867188 L 7.597656 18.632812 C 7.777344 18.808594 7.878906 19.042969 7.890625 19.304688 C 7.894531 19.429688 7.964844 19.550781 8.074219 19.617188 C 8.183594 19.683594 8.320312 19.695312 8.4375 19.640625 C 8.707031 19.519531 8.984375 19.511719 9.238281 19.597656 L 10.261719 19.9375 C 10.558594 20.03125 10.734375 20.234375 10.832031 20.386719 C 10.894531 20.476562 10.988281 20.542969 11.101562 20.558594 C 11.210938 20.574219 11.320312 20.546875 11.40625 20.476562 C 11.546875 20.359375 11.777344 20.222656 12.089844 20.222656 L 13.070312 20.222656 C 13.332031 20.222656 13.585938 20.324219 13.785156 20.503906 C 13.933594 20.636719 14.160156 20.636719 14.304688 20.503906 C 14.507812 20.324219 14.761719 20.222656 15.023438 20.222656 L 16.003906 20.222656 C 16.367188 20.222656 16.699219 20.402344 16.902344 20.703125 C 17.046875 20.921875 17.40625 20.921875 17.550781 20.703125 C 17.75 20.402344 18.085938 20.222656 18.449219 20.222656 L 19.425781 20.222656 C 20.023438 20.222656 20.503906 20.703125 20.503906 21.292969 C 20.503906 21.882812 20.023438 22.363281 19.425781 22.363281 L 18.449219 22.363281 C 18.085938 22.363281 17.75 22.183594 17.550781 21.882812 C 17.40625 21.664062 17.046875 21.664062 16.902344 21.882812 C 16.699219 22.183594 16.367188 22.363281 16.003906 22.363281 L 15.023438 22.363281 C 14.761719 22.363281 14.507812 22.261719 14.304688 22.082031 C 14.160156 21.949219 13.933594 21.949219 13.785156 22.082031 C 13.585938 22.261719 13.332031 22.363281 13.070312 22.363281 L 12.089844 22.363281 C 11.730469 22.363281 11.398438 22.183594 11.195312 21.890625 C 11.132812 21.800781 11.039062 21.738281 10.929688 21.722656 C 10.816406 21.707031 10.710938 21.738281 10.625 21.8125 C 10.332031 22.058594 9.921875 22.136719 9.558594 22.015625 L 8.539062 21.675781 C 8.109375 21.535156 7.8125 21.132812 7.792969 20.675781 C 7.785156 20.542969 7.714844 20.421875 7.605469 20.355469 C 7.492188 20.289062 7.351562 20.28125 7.234375 20.339844 C 6.777344 20.558594 6.277344 20.421875 5.988281 20.066406 L 5.304688 19.21875 C 5.125 18.996094 5.050781 18.707031 5.09375 18.429688 C 5.113281 18.296875 5.160156 18.171875 5.234375 18.050781 C 5.300781 17.945312 5.3125 17.8125 5.265625 17.699219 C 5.21875 17.582031 5.117188 17.496094 4.996094 17.464844 C 4.519531 17.355469 4.183594 16.945312 4.167969 16.464844 C 4.167969 16.285156 4.164062 16.105469 4.164062 15.945312 L 4.164062 15.457031 C 4.164062 15.199219 4.265625 14.945312 4.445312 14.746094 C 4.578125 14.597656 4.578125 14.371094 4.445312 14.222656 C 4.265625 14.023438 4.164062 13.769531 4.164062 13.511719 L 4.164062 12.539062 C 4.164062 12.042969 4.503906 11.617188 4.996094 11.503906 C 5.117188 11.472656 5.21875 11.386719 5.265625 11.273438 C 5.3125 11.15625 5.300781 11.023438 5.234375 10.917969 C 5.160156 10.800781 5.113281 10.671875 5.09375 10.542969 C 5.050781 10.261719 5.128906 9.972656 5.304688 9.753906 L 5.988281 8.90625 C 6.277344 8.542969 6.777344 8.410156 7.234375 8.628906 C 7.351562 8.6875 7.492188 8.679688 7.605469 8.613281 C 7.714844 8.546875 7.785156 8.425781 7.792969 8.296875 C 7.808594 7.835938 8.109375 7.433594 8.539062 7.292969 L 9.5625 6.953125 C 9.921875 6.835938 10.332031 6.910156 10.625 7.160156 C 10.710938 7.230469 10.816406 7.261719 10.929688 7.246094 C 11.039062 7.230469 11.132812 7.171875 11.195312 7.082031 C 11.398438 6.785156 11.730469 6.605469 12.089844 6.605469 L 13.070312 6.605469 C 13.332031 6.605469 13.585938 6.707031 13.785156 6.886719 C 13.933594 7.019531 14.160156 7.019531 14.304688 6.886719 C 14.507812 6.707031 14.761719 6.605469 15.023438 6.605469 L 16.003906 6.605469 C 16.367188 6.605469 16.699219 6.789062 16.902344 7.089844 C 17.046875 7.304688 17.40625 7.304688 17.550781 7.089844 C 17.75 6.789062 18.085938 6.605469 18.449219 6.605469 L 19.425781 6.605469 C 19.570312 6.605469 19.714844 6.636719 19.847656 6.691406 L 20.148438 5.972656 C 19.917969 5.878906 19.675781 5.828125 19.425781 5.828125 L 18.449219 5.828125 C 17.992188 5.828125 17.558594 5.996094 17.226562 6.289062 C 16.890625 5.996094 16.460938 5.828125 16.003906 5.828125 L 15.023438 5.828125 C 14.679688 5.828125 14.339844 5.925781 14.046875 6.109375 C 13.753906 5.925781 13.414062 5.828125 13.070312 5.828125 L 12.089844 5.828125 C 11.605469 5.828125 11.148438 6.015625 10.804688 6.34375 C 10.351562 6.101562 9.804688 6.050781 9.316406 6.214844 L 8.296875 6.554688 C 7.71875 6.742188 7.277344 7.207031 7.101562 7.773438 C 6.457031 7.652344 5.792969 7.90625 5.382812 8.417969 L 4.699219 9.265625 C 4.382812 9.65625 4.246094 10.164062 4.324219 10.660156 C 4.335938 10.746094 4.355469 10.824219 4.382812 10.90625 C 3.777344 11.21875 3.386719 11.839844 3.386719 12.539062 L 3.386719 13.511719 C 3.386719 13.855469 3.484375 14.191406 3.671875 14.484375 C 3.484375 14.777344 3.386719 15.113281 3.386719 15.457031 L 3.386719 16.429688 C 3.386719 16.445312 3.390625 16.457031 3.390625 16.46875 C 3.398438 17.253906 3.425781 18.566406 3.53125 18.929688 " fill-opacity="1" fill-rule="nonzero"/></g><g clip-path="url(#3e73ef3cc9)"><path fill="#ffffff" d="M 20.894531 9.558594 L 19.886719 8.550781 L 23.617188 4.824219 L 24.625 5.828125 Z M 18.171875 13.058594 L 16.386719 11.273438 L 18.949219 8.714844 L 20.734375 10.496094 Z M 14.667969 16.5625 L 12.886719 14.777344 L 15.835938 11.824219 L 17.621094 13.609375 Z M 13.667969 16.660156 L 11.996094 17.777344 L 11.667969 17.449219 L 12.785156 15.777344 Z M 23.890625 3.996094 L 22.726562 2.832031 L 22.175781 3.378906 L 23.066406 4.273438 L 19.335938 8 L 18.445312 7.109375 L 17.894531 7.660156 L 18.398438 8.164062 L 12.058594 14.5 C 11.90625 14.652344 11.90625 14.898438 12.058594 15.050781 L 12.222656 15.214844 L 10.84375 17.285156 C 10.742188 17.4375 10.761719 17.644531 10.894531 17.773438 L 11.671875 18.554688 C 11.746094 18.628906 11.847656 18.667969 11.945312 18.667969 C 12.019531 18.667969 12.097656 18.644531 12.160156 18.601562 L 14.230469 17.222656 L 14.394531 17.386719 C 14.46875 17.460938 14.570312 17.5 14.667969 17.5 C 14.769531 17.5 14.867188 17.460938 14.945312 17.386719 L 21.28125 11.046875 L 21.785156 11.550781 L 22.335938 11 L 21.445312 10.109375 L 25.171875 6.378906 L 26.066406 7.269531 L 26.617188 6.71875 L 23.890625 3.996094 " fill-opacity="1" fill-rule="nonzero"/></g></svg>