<svg xmlns="http://www.w3.org/2000/svg" xmlns:xlink="http://www.w3.org/1999/xlink" width="40" zoomAndPan="magnify" viewBox="0 0 30 30.000001" height="40" preserveAspectRatio="xMidYMid meet" version="1.0"><defs><clipPath id="64ddecfd4b"><path d="M 6.359375 2.902344 L 23.78125 2.902344 L 23.78125 25.402344 L 6.359375 25.402344 Z M 6.359375 2.902344 " clip-rule="nonzero"/></clipPath></defs><g clip-path="url(#64ddecfd4b)"><path fill="#ffffff" d="M 17.144531 18.777344 C 17.242188 19.125 17.324219 19.46875 17.402344 19.804688 C 17.476562 20.148438 17.546875 20.492188 17.617188 20.835938 L 17.71875 21.359375 C 17.855469 22.066406 17.996094 22.792969 18.195312 23.480469 L 18.199219 23.488281 C 18.292969 23.804688 18.503906 24.535156 18.75 24.539062 C 18.976562 24.546875 19.183594 24.484375 19.367188 24.382812 C 19.605469 24.25 19.808594 24.046875 19.980469 23.824219 C 20.3125 23.390625 20.566406 22.832031 20.757812 22.246094 C 20.957031 21.640625 21.089844 21.011719 21.179688 20.445312 C 21.308594 19.660156 21.324219 18.820312 21.269531 17.980469 C 21.214844 17.125 21.089844 16.273438 20.9375 15.460938 C 20.753906 14.480469 20.871094 14.273438 21.167969 13.75 C 21.25 13.605469 21.347656 13.4375 21.449219 13.214844 C 21.773438 12.527344 22.078125 11.796875 22.324219 11.050781 C 22.570312 10.3125 22.753906 9.558594 22.839844 8.8125 C 22.90625 8.226562 22.894531 7.632812 22.800781 7.074219 C 22.667969 6.28125 22.371094 5.550781 21.898438 5.003906 C 21.441406 4.472656 20.808594 4.105469 19.988281 4.015625 C 19.636719 3.976562 19.246094 3.988281 18.820312 4.058594 C 18.339844 4.136719 17.726562 4.398438 17.242188 4.605469 L 17.242188 4.609375 L 17.148438 4.644531 C 17.011719 4.703125 16.976562 4.71875 16.925781 4.742188 C 16.398438 4.976562 15.398438 5.417969 15.046875 5.417969 C 14.5 5.417969 13.558594 4.933594 13.035156 4.664062 L 12.902344 4.59375 L 12.746094 4.515625 L 12.742188 4.511719 L 12.742188 4.515625 C 12.242188 4.257812 11.574219 3.914062 11.113281 3.839844 C 10.652344 3.765625 10.238281 3.761719 9.871094 3.816406 C 9.132812 3.929688 8.566406 4.289062 8.15625 4.792969 C 7.730469 5.316406 7.464844 6.003906 7.34375 6.746094 C 7.234375 7.402344 7.238281 8.105469 7.34375 8.78125 C 7.460938 9.527344 7.675781 10.28125 7.953125 11.019531 C 8.234375 11.769531 8.570312 12.5 8.925781 13.195312 C 9.042969 13.417969 9.148438 13.59375 9.238281 13.738281 C 9.558594 14.265625 9.675781 14.457031 9.539062 15.433594 C 9.421875 16.238281 9.332031 17.09375 9.316406 17.9375 C 9.296875 18.78125 9.347656 19.625 9.511719 20.417969 C 9.625 20.972656 9.785156 21.601562 10.011719 22.214844 C 10.230469 22.804688 10.511719 23.371094 10.867188 23.808594 C 11.050781 24.039062 11.273438 24.242188 11.519531 24.378906 C 11.710938 24.484375 11.925781 24.546875 12.152344 24.539062 C 12.375 24.535156 12.550781 23.828125 12.628906 23.515625 L 12.628906 23.507812 C 12.632812 23.496094 12.632812 23.488281 12.636719 23.476562 C 12.800781 22.8125 12.910156 22.089844 13.015625 21.378906 C 13.023438 21.324219 13.035156 21.265625 13.097656 20.855469 C 13.15625 20.480469 13.214844 20.109375 13.265625 19.824219 C 13.328125 19.476562 13.398438 19.128906 13.480469 18.789062 L 13.484375 18.769531 C 13.601562 18.277344 13.742188 17.847656 14.015625 17.507812 C 14.316406 17.128906 14.742188 16.890625 15.410156 16.839844 C 16.570312 16.753906 16.933594 18.027344 17.132812 18.730469 Z M 8.570312 7.617188 C 8.605469 6.8125 8.835938 5.835938 9.457031 5.332031 C 9.878906 4.988281 10.425781 4.957031 10.976562 5.046875 C 11.289062 5.101562 12.046875 5.515625 12.339844 5.664062 L 12.675781 5.835938 C 12.578125 5.808594 12.488281 5.785156 12.398438 5.769531 C 10.441406 5.453125 9.207031 6.3125 8.570312 7.617188 Z M 16.554688 19.984375 C 16.480469 19.648438 16.398438 19.320312 16.3125 19.007812 L 16.308594 18.992188 L 16.296875 18.960938 C 16.167969 18.496094 15.929688 17.660156 15.476562 17.691406 C 15.082031 17.722656 14.847656 17.84375 14.695312 18.035156 C 14.519531 18.253906 14.417969 18.582031 14.324219 18.96875 L 14.320312 18.984375 C 14.242188 19.3125 14.179688 19.640625 14.117188 19.972656 C 14.046875 20.367188 14 20.683594 13.949219 20.988281 L 13.875 21.503906 C 13.765625 22.222656 13.652344 22.957031 13.476562 23.679688 L 13.472656 23.699219 L 13.46875 23.710938 L 13.46875 23.707031 L 13.46875 23.710938 C 13.34375 24.21875 13.0625 25.371094 12.171875 25.394531 C 11.777344 25.402344 11.421875 25.300781 11.101562 25.128906 C 10.746094 24.933594 10.441406 24.652344 10.191406 24.34375 C 9.769531 23.824219 9.445312 23.175781 9.199219 22.507812 C 8.957031 21.863281 8.785156 21.183594 8.664062 20.585938 C 8.488281 19.722656 8.433594 18.820312 8.453125 17.921875 C 8.46875 17.027344 8.5625 16.144531 8.679688 15.316406 C 8.777344 14.640625 8.703125 14.515625 8.496094 14.179688 C 8.402344 14.03125 8.292969 13.847656 8.15625 13.578125 C 7.785156 12.855469 7.429688 12.09375 7.140625 11.3125 C 6.84375 10.523438 6.613281 9.714844 6.488281 8.914062 C 6.367188 8.152344 6.363281 7.359375 6.488281 6.609375 C 6.636719 5.726562 6.960938 4.902344 7.484375 4.257812 C 8.023438 3.589844 8.769531 3.121094 9.742188 2.972656 C 10.199219 2.902344 10.699219 2.90625 11.253906 2.996094 C 11.855469 3.09375 12.589844 3.472656 13.140625 3.753906 L 13.277344 3.824219 L 13.433594 3.902344 L 13.433594 3.90625 C 13.890625 4.140625 14.707031 4.5625 15.046875 4.5625 C 15.21875 4.5625 16.105469 4.171875 16.574219 3.964844 C 16.710938 3.902344 16.78125 3.871094 16.808594 3.859375 L 16.898438 3.820312 L 16.898438 3.824219 C 17.429688 3.597656 18.101562 3.308594 18.679688 3.214844 C 19.1875 3.132812 19.65625 3.121094 20.082031 3.167969 C 21.140625 3.285156 21.960938 3.757812 22.554688 4.449219 C 23.136719 5.121094 23.496094 5.996094 23.652344 6.9375 C 23.761719 7.574219 23.773438 8.246094 23.699219 8.90625 C 23.609375 9.714844 23.410156 10.527344 23.148438 11.316406 C 22.890625 12.097656 22.570312 12.859375 22.238281 13.574219 C 22.113281 13.835938 22.011719 14.015625 21.925781 14.167969 C 21.734375 14.5 21.660156 14.628906 21.785156 15.308594 C 21.945312 16.152344 22.074219 17.039062 22.132812 17.925781 C 22.191406 18.824219 22.171875 19.722656 22.035156 20.578125 C 21.9375 21.183594 21.792969 21.859375 21.582031 22.507812 C 21.363281 23.175781 21.066406 23.820312 20.667969 24.339844 C 20.433594 24.644531 20.140625 24.929688 19.789062 25.125 C 19.476562 25.300781 19.125 25.402344 18.730469 25.394531 C 17.84375 25.371094 17.511719 24.222656 17.367188 23.722656 L 17.363281 23.714844 C 17.15625 23 17.011719 22.25 16.867188 21.519531 C 16.839844 21.375 16.8125 21.242188 16.765625 21 C 16.699219 20.664062 16.628906 20.324219 16.554688 19.984375 Z M 16.554688 19.984375 " fill-opacity="1" fill-rule="nonzero"/></g></svg>