<svg xmlns="http://www.w3.org/2000/svg" xmlns:xlink="http://www.w3.org/1999/xlink" width="40" zoomAndPan="magnify" viewBox="0 0 30 30.000001" height="40" preserveAspectRatio="xMidYMid meet" version="1.0"><defs><clipPath id="38f0880b2c"><path d="M 6.421875 1.796875 L 23.84375 1.796875 L 23.84375 26.476562 L 6.421875 26.476562 Z M 6.421875 1.796875 " clip-rule="nonzero"/></clipPath></defs><g clip-path="url(#38f0880b2c)"><path fill="#ffffff" d="M 21.78125 24.289062 C 21.78125 25.714844 18.335938 26.363281 15.140625 26.363281 C 11.941406 26.363281 8.5 25.714844 8.5 24.289062 C 8.5 23.582031 9.304688 23.03125 10.894531 22.652344 C 11.113281 22.597656 11.339844 22.734375 11.394531 22.957031 C 11.449219 23.179688 11.3125 23.402344 11.089844 23.457031 C 11.089844 23.457031 11.085938 23.460938 11.085938 23.460938 C 9.640625 23.804688 9.328125 24.210938 9.328125 24.289062 C 9.328125 24.664062 11.304688 25.535156 15.140625 25.535156 C 18.972656 25.535156 20.949219 24.664062 20.949219 24.289062 C 20.949219 24.210938 20.636719 23.804688 19.191406 23.460938 C 18.972656 23.40625 18.832031 23.1875 18.882812 22.960938 C 18.933594 22.738281 19.160156 22.597656 19.382812 22.652344 C 19.382812 22.652344 19.382812 22.652344 19.386719 22.652344 C 20.976562 23.03125 21.78125 23.582031 21.78125 24.289062 Z M 15.140625 2.738281 C 19.492188 2.746094 23.019531 6.269531 23.027344 10.613281 C 23.027344 16.382812 17.203125 22.238281 15.421875 23.894531 C 15.261719 24.046875 15.015625 24.046875 14.859375 23.894531 C 13.074219 22.238281 7.253906 16.382812 7.253906 10.613281 C 7.257812 6.269531 10.785156 2.746094 15.140625 2.738281 Z M 14.292969 24.503906 C 14.769531 24.949219 15.511719 24.949219 15.988281 24.503906 C 17.832031 22.785156 23.855469 16.714844 23.855469 10.613281 C 23.855469 5.808594 19.953125 1.910156 15.140625 1.910156 C 10.324219 1.910156 6.421875 5.808594 6.421875 10.613281 C 6.421875 16.714844 12.449219 22.785156 14.292969 24.503906 Z M 13.71875 14.78125 C 13.683594 14.945312 13.542969 15.0625 13.375 15.082031 C 13.332031 15.078125 13.304688 15.023438 13.296875 14.917969 C 13.152344 13.804688 12.875 12.710938 12.464844 11.664062 C 12.140625 10.871094 11.929688 10.035156 11.832031 9.183594 C 11.796875 8.742188 11.941406 8.304688 12.238281 7.972656 C 12.5625 7.664062 12.996094 7.492188 13.441406 7.5 C 13.722656 7.5 13.996094 7.578125 14.230469 7.726562 C 14.800781 8.089844 15.535156 8.089844 16.105469 7.726562 C 16.34375 7.578125 16.613281 7.5 16.894531 7.5 C 17.34375 7.492188 17.777344 7.664062 18.097656 7.972656 C 18.394531 8.304688 18.542969 8.742188 18.503906 9.183594 C 18.410156 10.035156 18.195312 10.871094 17.871094 11.664062 C 17.464844 12.710938 17.1875 13.804688 17.042969 14.917969 C 17.03125 15.023438 17.007812 15.078125 16.960938 15.082031 C 16.796875 15.0625 16.65625 14.945312 16.621094 14.78125 C 16.597656 14.648438 16.582031 14.511719 16.574219 14.375 C 16.523438 13.65625 16.414062 12.15625 15.167969 12.15625 C 13.925781 12.15625 13.816406 13.65625 13.761719 14.375 C 13.757812 14.511719 13.742188 14.644531 13.71875 14.78125 Z M 14.515625 15.019531 C 14.558594 14.828125 14.582031 14.632812 14.589844 14.4375 C 14.65625 13.542969 14.777344 12.988281 15.167969 12.988281 C 15.5625 12.988281 15.683594 13.542969 15.75 14.4375 C 15.753906 14.632812 15.78125 14.828125 15.824219 15.019531 C 15.964844 15.527344 16.417969 15.886719 16.945312 15.910156 C 16.980469 15.910156 17.011719 15.910156 17.046875 15.90625 C 17.511719 15.851562 17.863281 15.460938 17.871094 14.992188 C 18.007812 13.945312 18.273438 12.917969 18.65625 11.9375 C 19.011719 11.0625 19.242188 10.144531 19.335938 9.207031 C 19.378906 8.539062 19.148438 7.886719 18.691406 7.398438 C 18.210938 6.925781 17.566406 6.664062 16.894531 6.667969 C 16.480469 6.667969 16.074219 6.78125 15.71875 6.992188 C 15.390625 7.230469 14.949219 7.230469 14.621094 6.992188 C 14.265625 6.78125 13.855469 6.667969 13.441406 6.667969 C 12.769531 6.664062 12.125 6.925781 11.644531 7.398438 C 11.191406 7.886719 10.957031 8.539062 11.003906 9.207031 C 11.097656 10.144531 11.324219 11.0625 11.683594 11.9375 C 12.066406 12.917969 12.332031 13.945312 12.46875 14.992188 C 12.476562 15.460938 12.828125 15.851562 13.292969 15.90625 C 13.324219 15.910156 13.359375 15.910156 13.390625 15.910156 C 13.917969 15.886719 14.375 15.527344 14.515625 15.019531 " fill-opacity="1" fill-rule="nonzero"/></g></svg>