<svg xmlns="http://www.w3.org/2000/svg" xmlns:xlink="http://www.w3.org/1999/xlink" width="40" zoomAndPan="magnify" viewBox="0 0 30 30.000001" height="40" preserveAspectRatio="xMidYMid meet" version="1.0"><defs><clipPath id="297543e1e0"><path d="M 20 1.898438 L 24 1.898438 L 24 6 L 20 6 Z M 20 1.898438 " clip-rule="nonzero"/></clipPath></defs><path fill="#ffffff" d="M 22.738281 9.285156 C 22.050781 8.101562 20.855469 7.527344 19.589844 7.40625 C 19.457031 7.394531 19.332031 7.453125 19.246094 7.550781 C 18.742188 8.164062 18.253906 8.792969 17.789062 9.433594 C 17.265625 10.148438 16.769531 10.882812 16.308594 11.640625 C 17.671875 11.113281 19.484375 11.261719 20.089844 12.421875 C 20.378906 12.976562 20.492188 13.550781 20.492188 14.140625 C 20.492188 15.4375 19.933594 16.789062 19.417969 18.023438 C 19.34375 18.207031 19.269531 18.386719 19.195312 18.5625 C 18.808594 19.515625 18.640625 20.949219 18.488281 22.214844 C 18.394531 23.003906 18.269531 24.039062 18.109375 24.46875 C 18.085938 24.535156 17.988281 24.535156 17.964844 24.464844 C 17.84375 24.097656 17.792969 23.253906 17.753906 22.605469 C 17.644531 20.765625 17.496094 18.246094 16.078125 17.082031 C 15.457031 16.570312 14.582031 16.570312 13.964844 17.078125 C 13.832031 17.191406 13.707031 17.3125 13.59375 17.449219 C 12.53125 18.707031 12.386719 20.890625 12.289062 22.550781 C 12.289062 22.570312 12.289062 22.589844 12.285156 22.605469 C 12.246094 23.257812 12.199219 24.105469 12.082031 24.464844 C 12.058594 24.539062 11.960938 24.542969 11.933594 24.472656 C 11.769531 24.046875 11.648438 23.007812 11.554688 22.214844 C 11.402344 20.949219 11.234375 19.515625 10.84375 18.5625 C 10.773438 18.386719 10.699219 18.207031 10.621094 18.023438 C 9.875 16.226562 9.027344 14.191406 9.953125 12.421875 C 10.339844 11.675781 11.226562 11.347656 12.167969 11.347656 C 12.667969 11.347656 13.179688 11.441406 13.644531 11.609375 C 14.242188 11.828125 14.886719 11.898438 15.511719 11.824219 C 16.410156 10.269531 17.441406 8.792969 18.578125 7.40625 C 17.828125 7.464844 17.09375 7.671875 16.464844 7.984375 C 16.203125 8.109375 15.933594 8.199219 15.660156 8.253906 C 15.289062 8.328125 15.191406 8.835938 15.535156 9 C 15.574219 9.019531 15.613281 9.03125 15.648438 9.039062 C 15.800781 9.0625 15.945312 9.191406 15.945312 9.34375 C 15.941406 9.511719 15.804688 9.644531 15.640625 9.644531 L 15.613281 9.644531 C 14.988281 9.582031 14.695312 9.167969 14.410156 8.765625 C 14.242188 8.527344 14.070312 8.246094 13.578125 7.984375 C 11.621094 6.929688 8.574219 7.089844 7.304688 9.285156 C 5.636719 12.164062 7.304688 16.347656 8.957031 19.300781 C 10.613281 22.257812 10.035156 27.3125 12.386719 26.914062 C 14.105469 26.621094 13.183594 18.5625 15.019531 18.5625 C 16.859375 18.5625 15.9375 26.621094 17.65625 26.914062 C 20.007812 27.3125 19.429688 22.257812 21.085938 19.300781 C 22.738281 16.347656 24.40625 12.164062 22.738281 9.285156 " fill-opacity="1" fill-rule="nonzero"/><path fill="#ffffff" d="M 11.78125 23.273438 C 11.699219 22.410156 11.707031 21.546875 11.773438 20.683594 C 11.851562 19.8125 12.011719 18.960938 12.222656 18.121094 C 12.644531 16.441406 13.28125 14.824219 14.050781 13.28125 C 15.601562 10.199219 17.648438 7.386719 20.046875 4.921875 C 20.164062 4.804688 20.355469 4.800781 20.472656 4.917969 C 20.59375 5.035156 20.59375 5.226562 20.476562 5.347656 C 19.300781 6.558594 18.21875 7.863281 17.222656 9.230469 C 16.226562 10.597656 15.328125 12.035156 14.558594 13.542969 C 13.796875 15.046875 13.164062 16.621094 12.738281 18.253906 C 12.527344 19.066406 12.375 19.902344 12.277344 20.730469 C 12.191406 21.566406 12.148438 22.414062 12.125 23.257812 L 12.125 23.261719 C 12.121094 23.359375 12.042969 23.433594 11.949219 23.429688 C 11.859375 23.429688 11.789062 23.359375 11.78125 23.273438 " fill-opacity="1" fill-rule="nonzero"/><g clip-path="url(#297543e1e0)"><path fill="#ffffff" d="M 22.96875 3.238281 L 21.308594 5.132812 C 21.039062 5.445312 20.566406 5.472656 20.257812 5.199219 C 19.945312 4.925781 19.917969 4.453125 20.1875 4.140625 L 21.847656 2.246094 C 22.121094 1.9375 22.59375 1.90625 22.902344 2.179688 C 23.210938 2.453125 23.242188 2.925781 22.96875 3.238281 " fill-opacity="1" fill-rule="nonzero"/></g></svg>