<svg xmlns="http://www.w3.org/2000/svg" xmlns:xlink="http://www.w3.org/1999/xlink" width="40" zoomAndPan="magnify" viewBox="0 0 30 30.000001" height="40" preserveAspectRatio="xMidYMid meet" version="1.0"><defs><clipPath id="a240a7d3a7"><path d="M 4.757812 3.789062 L 25 3.789062 L 25 14 L 4.757812 14 Z M 4.757812 3.789062 " clip-rule="nonzero"/></clipPath><clipPath id="e0bada3e98"><path d="M 4.757812 23.347656 L 15.300781 23.347656 L 15.300781 26.3125 L 4.757812 26.3125 Z M 4.757812 23.347656 " clip-rule="nonzero"/></clipPath><clipPath id="1f7818d38b"><path d="M 16 1.835938 L 25.082031 1.835938 L 25.082031 4.769531 L 16 4.769531 Z M 16 1.835938 " clip-rule="nonzero"/></clipPath></defs><g clip-path="url(#a240a7d3a7)"><path fill="#ffffff" d="M 24.410156 9.320312 C 23.675781 8.621094 23.070312 8.78125 22.296875 9.382812 C 21.886719 8.804688 21.464844 8.542969 21.042969 8.578125 C 20.550781 8.625 20.214844 9.082031 20.042969 9.386719 C 19.804688 9.101562 19.351562 8.664062 18.816406 8.71875 C 18.425781 8.753906 18.078125 9.042969 17.78125 9.570312 C 17.691406 9.289062 17.53125 8.964844 17.246094 8.75 C 16.945312 8.523438 16.570312 8.46875 16.128906 8.578125 C 15.449219 8.75 15.097656 9.113281 14.917969 9.476562 C 14.738281 9.113281 14.386719 8.75 13.707031 8.578125 C 13.265625 8.46875 12.890625 8.523438 12.589844 8.75 C 12.308594 8.964844 12.144531 9.289062 12.054688 9.570312 C 11.761719 9.042969 11.414062 8.753906 11.019531 8.71875 C 10.484375 8.664062 10.035156 9.101562 9.796875 9.386719 C 9.625 9.082031 9.285156 8.625 8.792969 8.578125 C 8.371094 8.542969 7.953125 8.804688 7.542969 9.382812 C 6.746094 8.765625 6.136719 8.617188 5.324219 9.363281 L 5.117188 7.398438 C 5.117188 6.902344 5.347656 6.460938 5.699219 6.277344 C 10.855469 3.613281 18.925781 3.613281 24.074219 6.285156 C 24.410156 6.464844 24.640625 6.910156 24.640625 7.375 Z M 24.363281 11.640625 C 23.761719 12.042969 23.25 12.195312 22.722656 12.117188 C 22.585938 12.117188 22.4375 11.910156 22.4375 11.605469 L 22.4375 11.3125 C 22.4375 11.257812 22.4375 11.199219 22.4375 11.144531 L 22.4375 9.734375 C 23.246094 9.085938 23.679688 9.003906 24.363281 9.792969 Z M 22.078125 11.308594 C 22.050781 12.015625 21.6875 12.332031 21.460938 12.457031 C 21.121094 12.652344 20.699219 12.648438 20.417969 12.457031 C 20.339844 12.402344 20.25 12.226562 20.25 11.675781 L 20.25 9.765625 C 20.355469 9.519531 20.675781 8.980469 21.078125 8.941406 C 21.457031 8.910156 21.824219 9.324219 22.078125 9.703125 Z M 19.890625 11.675781 L 19.890625 12.246094 C 19.890625 12.390625 19.867188 12.527344 19.828125 12.652344 C 19.746094 12.808594 18.886719 13.097656 18.273438 13.03125 C 18.074219 13.007812 17.941406 12.945312 17.921875 12.863281 C 17.902344 12.796875 17.890625 12.726562 17.890625 12.652344 L 17.890625 10.164062 C 18.171875 9.488281 18.503906 9.113281 18.847656 9.085938 C 19.328125 9.027344 19.777344 9.617188 19.890625 9.785156 Z M 17.53125 12.652344 L 17.53125 12.992188 C 17.53125 13.296875 17.378906 13.503906 17.242188 13.503906 L 15.386719 13.503906 C 15.25 13.503906 15.097656 13.285156 15.097656 12.992188 L 15.097656 10.542969 C 15.097656 10.515625 15.089844 10.488281 15.078125 10.464844 C 15.085938 10.449219 15.089844 10.433594 15.09375 10.417969 C 15.09375 10.414062 15.097656 10.414062 15.097656 10.410156 C 15.097656 10.40625 15.109375 10.292969 15.097656 10.128906 C 15.125 9.785156 15.308594 9.160156 16.214844 8.933594 C 16.546875 8.851562 16.824219 8.890625 17.03125 9.042969 C 17.46875 9.371094 17.53125 10.101562 17.53125 10.132812 Z M 14.738281 10.542969 L 14.738281 12.992188 C 14.738281 13.285156 14.589844 13.503906 14.453125 13.503906 L 12.59375 13.503906 C 12.457031 13.503906 12.304688 13.296875 12.304688 12.992188 L 12.304688 10.132812 C 12.308594 10.101562 12.367188 9.371094 12.804688 9.046875 C 13.015625 8.890625 13.289062 8.847656 13.621094 8.933594 C 14.53125 9.160156 14.710938 9.792969 14.742188 10.136719 C 14.726562 10.300781 14.742188 10.40625 14.742188 10.410156 C 14.742188 10.414062 14.746094 10.414062 14.746094 10.417969 C 14.746094 10.433594 14.753906 10.449219 14.757812 10.464844 C 14.746094 10.488281 14.738281 10.515625 14.738281 10.542969 Z M 11.945312 12.652344 C 11.945312 12.722656 11.9375 12.796875 11.917969 12.867188 C 11.894531 12.945312 11.765625 13.007812 11.566406 13.03125 C 10.953125 13.097656 10.089844 12.808594 10.007812 12.65625 C 9.96875 12.527344 9.949219 12.390625 9.949219 12.246094 L 9.949219 9.785156 C 10.113281 9.542969 10.550781 9.042969 10.988281 9.085938 C 11.335938 9.113281 11.664062 9.488281 11.945312 10.164062 Z M 9.589844 11.675781 C 9.589844 12.222656 9.496094 12.402344 9.417969 12.453125 C 9.136719 12.648438 8.71875 12.652344 8.378906 12.457031 C 8.152344 12.332031 7.785156 12.015625 7.761719 11.300781 L 7.761719 9.703125 C 8.011719 9.324219 8.378906 8.910156 8.757812 8.941406 C 9.160156 8.980469 9.480469 9.519531 9.589844 9.765625 Z M 7.402344 11.140625 C 7.398438 11.195312 7.398438 11.25 7.402344 11.304688 L 7.402344 11.605469 C 7.402344 11.910156 7.25 12.117188 7.089844 12.121094 C 6.59375 12.195312 6.097656 12.054688 5.390625 11.632812 L 5.390625 9.800781 C 6.144531 9.003906 6.59375 9.085938 7.402344 9.734375 Z M 24.234375 5.960938 C 18.996094 3.242188 10.78125 3.238281 5.535156 5.953125 C 5.0625 6.195312 4.757812 6.765625 4.757812 7.417969 L 5.03125 10.019531 L 5.03125 11.738281 C 5.03125 11.800781 5.066406 11.859375 5.121094 11.894531 C 5.699219 12.25 6.390625 12.597656 7.113281 12.484375 C 7.320312 12.484375 7.5 12.363281 7.613281 12.167969 C 7.75 12.425781 7.949219 12.636719 8.203125 12.777344 C 8.425781 12.902344 8.675781 12.96875 8.917969 12.96875 C 9.171875 12.96875 9.417969 12.898438 9.621094 12.761719 C 9.636719 12.75 9.644531 12.730469 9.65625 12.71875 C 9.660156 12.734375 9.664062 12.753906 9.667969 12.769531 C 9.785156 13.148438 10.753906 13.40625 11.378906 13.40625 C 11.394531 13.40625 11.40625 13.40625 11.421875 13.40625 C 11.679688 13.402344 11.859375 13.355469 11.984375 13.289062 C 12.074219 13.628906 12.308594 13.871094 12.59375 13.871094 L 14.453125 13.871094 C 14.636719 13.871094 14.800781 13.769531 14.917969 13.605469 C 15.035156 13.769531 15.199219 13.871094 15.386719 13.871094 L 17.242188 13.871094 C 17.527344 13.871094 17.765625 13.628906 17.851562 13.289062 C 17.980469 13.355469 18.160156 13.402344 18.417969 13.40625 C 18.429688 13.40625 18.445312 13.40625 18.460938 13.40625 C 19.082031 13.40625 20.050781 13.148438 20.171875 12.769531 C 20.175781 12.753906 20.175781 12.738281 20.183594 12.71875 C 20.195312 12.730469 20.203125 12.75 20.21875 12.761719 C 20.417969 12.898438 20.664062 12.96875 20.917969 12.96875 C 21.164062 12.96875 21.410156 12.902344 21.632812 12.777344 C 21.886719 12.636719 22.085938 12.429688 22.222656 12.171875 C 22.335938 12.363281 22.507812 12.484375 22.691406 12.484375 C 22.695312 12.484375 22.695312 12.484375 22.695312 12.484375 C 23.308594 12.578125 23.933594 12.386719 24.644531 11.886719 C 24.695312 11.851562 24.722656 11.796875 24.722656 11.738281 L 24.722656 9.734375 L 25 7.398438 C 25 6.765625 24.699219 6.199219 24.234375 5.960938 " fill-opacity="1" fill-rule="nonzero"/></g><path fill="#ffffff" d="M 24.363281 20.664062 C 24.363281 21.175781 24.132812 21.636719 23.789062 21.816406 C 18.613281 24.496094 11.109375 24.488281 5.945312 21.804688 C 5.613281 21.628906 5.390625 21.1875 5.390625 20.699219 C 5.390625 20.695312 5.390625 20.6875 5.386719 20.683594 C 5.390625 20.675781 5.390625 20.671875 5.390625 20.664062 L 5.390625 18.773438 C 5.390625 18.75 5.394531 18.734375 5.398438 18.726562 C 5.617188 19.113281 5.835938 19.195312 6 19.175781 C 6.582031 19.589844 7.09375 19.757812 7.578125 19.675781 C 7.746094 19.675781 7.894531 19.578125 7.996094 19.421875 C 8.121094 19.652344 8.296875 19.835938 8.523438 19.957031 C 8.707031 20.058594 8.90625 20.109375 9.101562 20.109375 C 9.324219 20.109375 9.535156 20.042969 9.710938 19.917969 C 9.824219 20.277344 10.652344 20.503906 11.183594 20.503906 C 11.191406 20.503906 11.203125 20.503906 11.214844 20.503906 C 11.433594 20.5 11.589844 20.453125 11.699219 20.398438 C 11.699219 20.40625 11.703125 20.414062 11.703125 20.417969 C 11.804688 20.753906 12.476562 20.871094 12.917969 20.871094 C 12.941406 20.871094 12.964844 20.867188 12.988281 20.867188 C 13.394531 20.855469 13.6875 20.753906 13.855469 20.578125 C 14.027344 20.753906 14.320312 20.855469 14.726562 20.867188 C 14.75 20.867188 14.773438 20.871094 14.796875 20.871094 C 15.15625 20.871094 15.667969 20.789062 15.898438 20.578125 C 16.066406 20.753906 16.359375 20.855469 16.769531 20.867188 C 16.792969 20.867188 16.816406 20.871094 16.835938 20.871094 C 17.28125 20.871094 17.953125 20.753906 18.054688 20.417969 C 18.054688 20.414062 18.054688 20.40625 18.058594 20.398438 C 18.167969 20.453125 18.324219 20.5 18.542969 20.503906 C 18.554688 20.503906 18.5625 20.503906 18.574219 20.503906 C 19.101562 20.503906 19.933594 20.277344 20.046875 19.917969 C 20.222656 20.042969 20.433594 20.109375 20.652344 20.109375 C 20.847656 20.109375 21.046875 20.058594 21.230469 19.957031 C 21.457031 19.835938 21.632812 19.65625 21.757812 19.425781 C 21.859375 19.578125 21.996094 19.675781 22.148438 19.675781 C 22.148438 19.675781 22.148438 19.675781 22.152344 19.675781 C 22.664062 19.757812 23.171875 19.589844 23.757812 19.175781 C 23.921875 19.195312 24.136719 19.113281 24.347656 18.714844 C 24.351562 18.71875 24.363281 18.734375 24.363281 18.773438 Z M 6.214844 17.238281 C 6.382812 17.011719 6.59375 16.878906 6.835938 16.847656 C 7.136719 16.804688 7.464844 16.925781 7.789062 17.191406 L 7.789062 18.449219 C 7.789062 18.5 7.789062 18.550781 7.789062 18.597656 L 7.789062 18.867188 C 7.789062 19.117188 7.675781 19.308594 7.550781 19.3125 C 7.140625 19.375 6.710938 19.242188 6.214844 18.890625 Z M 8.152344 17.167969 C 8.28125 17.007812 8.457031 16.921875 8.675781 16.90625 C 9.039062 16.886719 9.425781 17.0625 9.640625 17.257812 L 9.640625 18.925781 C 9.640625 19.441406 9.554688 19.582031 9.507812 19.617188 C 9.289062 19.773438 8.964844 19.78125 8.695312 19.636719 C 8.359375 19.453125 8.167969 19.074219 8.152344 18.582031 Z M 10 18.925781 L 10 17.285156 C 10.195312 17.195312 10.589844 17.125 10.96875 17.203125 C 11.175781 17.242188 11.453125 17.347656 11.636719 17.59375 L 11.636719 19.804688 C 11.636719 19.871094 11.628906 19.933594 11.609375 19.996094 C 11.589844 20.085938 11.417969 20.117188 11.347656 20.125 C 10.847656 20.191406 10.125 19.9375 10.050781 19.808594 C 10.015625 19.691406 10 19.570312 10 19.441406 Z M 11.996094 19.804688 L 11.996094 17.648438 C 12.214844 17.503906 12.6875 17.359375 13.101562 17.417969 C 13.355469 17.453125 13.546875 17.550781 13.675781 17.714844 L 13.675781 20.039062 C 13.675781 20.109375 13.667969 20.179688 13.652344 20.246094 C 13.625 20.347656 13.484375 20.429688 13.257812 20.472656 C 12.742188 20.566406 12.121094 20.414062 12.046875 20.308594 C 12.011719 20.195312 11.996094 20.066406 11.996094 19.933594 Z M 14.035156 17.714844 C 14.167969 17.550781 14.359375 17.453125 14.609375 17.417969 C 15.027344 17.359375 15.5 17.503906 15.71875 17.648438 C 15.71875 17.652344 15.71875 17.652344 15.71875 17.652344 L 15.71875 19.933594 C 15.71875 20.066406 15.703125 20.195312 15.671875 20.300781 C 15.59375 20.414062 14.972656 20.570312 14.457031 20.472656 C 14.230469 20.429688 14.085938 20.347656 14.0625 20.246094 C 14.042969 20.179688 14.035156 20.109375 14.035156 20.039062 Z M 16.078125 19.933594 L 16.078125 17.714844 C 16.207031 17.550781 16.398438 17.453125 16.652344 17.417969 C 17.066406 17.359375 17.539062 17.503906 17.761719 17.648438 L 17.761719 19.933594 C 17.761719 20.066406 17.742188 20.195312 17.714844 20.300781 C 17.636719 20.414062 17.015625 20.570312 16.5 20.472656 C 16.273438 20.429688 16.128906 20.347656 16.105469 20.246094 C 16.085938 20.179688 16.078125 20.109375 16.078125 20.039062 Z M 18.121094 19.394531 L 18.121094 17.59375 C 18.300781 17.347656 18.582031 17.242188 18.789062 17.203125 C 19.164062 17.128906 19.558594 17.195312 19.753906 17.285156 L 19.753906 19.441406 C 19.753906 19.570312 19.738281 19.691406 19.707031 19.800781 C 19.632812 19.9375 18.902344 20.191406 18.410156 20.125 C 18.335938 20.117188 18.167969 20.085938 18.144531 19.996094 C 18.128906 19.933594 18.121094 19.871094 18.121094 19.804688 Z M 20.113281 17.257812 C 20.328125 17.0625 20.714844 16.882812 21.078125 16.90625 C 21.300781 16.921875 21.476562 17.007812 21.605469 17.167969 L 21.605469 18.589844 C 21.589844 19.078125 21.394531 19.453125 21.0625 19.636719 C 20.792969 19.78125 20.464844 19.773438 20.25 19.617188 C 20.199219 19.582031 20.113281 19.441406 20.113281 18.925781 Z M 21.964844 18.605469 C 21.964844 18.554688 21.96875 18.503906 21.964844 18.449219 L 21.964844 17.191406 C 22.292969 16.925781 22.621094 16.804688 22.921875 16.847656 C 23.164062 16.878906 23.375 17.011719 23.539062 17.238281 L 23.539062 18.890625 C 23.042969 19.242188 22.617188 19.378906 22.179688 19.308594 C 22.082031 19.308594 21.964844 19.117188 21.964844 18.867188 Z M 24.441406 18.363281 C 24.289062 18.320312 24.132812 18.390625 24.050781 18.542969 C 23.996094 18.636719 23.945312 18.703125 23.898438 18.746094 L 23.898438 17.179688 C 23.898438 17.140625 23.890625 17.105469 23.867188 17.074219 C 23.640625 16.734375 23.328125 16.53125 22.96875 16.484375 C 22.589844 16.433594 22.195312 16.5625 21.808594 16.851562 C 21.625 16.667969 21.382812 16.5625 21.101562 16.542969 C 20.636719 16.507812 20.183594 16.71875 19.90625 16.953125 C 19.628906 16.828125 19.15625 16.753906 18.71875 16.839844 C 18.375 16.910156 18.097656 17.074219 17.898438 17.304688 C 17.585938 17.125 17.070312 16.992188 16.605469 17.054688 C 16.335938 17.09375 16.105469 17.191406 15.929688 17.351562 C 15.628906 17.148438 15.066406 16.984375 14.566406 17.054688 C 14.277344 17.09375 14.035156 17.203125 13.855469 17.375 C 13.675781 17.203125 13.4375 17.09375 13.152344 17.054688 C 12.6875 16.992188 12.171875 17.125 11.859375 17.304688 C 11.660156 17.074219 11.382812 16.910156 11.035156 16.839844 C 10.597656 16.753906 10.128906 16.828125 9.847656 16.953125 C 9.574219 16.71875 9.117188 16.507812 8.652344 16.542969 C 8.375 16.5625 8.132812 16.667969 7.949219 16.851562 C 7.5625 16.5625 7.164062 16.433594 6.789062 16.484375 C 6.429688 16.53125 6.117188 16.734375 5.886719 17.074219 C 5.867188 17.105469 5.855469 17.140625 5.855469 17.179688 L 5.855469 18.746094 C 5.8125 18.703125 5.761719 18.636719 5.707031 18.542969 C 5.621094 18.390625 5.46875 18.320312 5.3125 18.363281 C 5.144531 18.410156 5.03125 18.574219 5.03125 18.773438 L 5.03125 20.664062 C 5.03125 20.671875 5.035156 20.675781 5.035156 20.683594 C 5.035156 20.6875 5.03125 20.695312 5.03125 20.699219 C 5.03125 21.332031 5.324219 21.890625 5.78125 22.128906 C 8.414062 23.5 11.644531 24.183594 14.878906 24.183594 C 18.097656 24.183594 21.320312 23.503906 23.949219 22.140625 C 24.421875 21.898438 24.722656 21.316406 24.722656 20.664062 L 24.722656 18.773438 C 24.722656 18.574219 24.613281 18.410156 24.441406 18.363281 " fill-opacity="1" fill-rule="nonzero"/><g clip-path="url(#e0bada3e98)"><path fill="#ffffff" d="M 14.875 25.949219 C 11.378906 25.949219 7.933594 25.15625 5.171875 23.71875 C 5.085938 23.671875 4.976562 23.710938 4.929688 23.800781 C 4.886719 23.886719 4.921875 24 5.007812 24.046875 C 7.820312 25.507812 11.324219 26.3125 14.875 26.3125 C 14.976562 26.3125 15.054688 26.230469 15.054688 26.128906 C 15.054688 26.03125 14.976562 25.949219 14.875 25.949219 " fill-opacity="1" fill-rule="nonzero"/></g><g clip-path="url(#1f7818d38b)"><path fill="#ffffff" d="M 25.003906 4.042969 C 22.566406 2.777344 19.566406 2.011719 16.324219 1.835938 C 16.226562 1.824219 16.140625 1.90625 16.132812 2.007812 C 16.128906 2.109375 16.203125 2.195312 16.304688 2.199219 C 19.496094 2.378906 22.449219 3.125 24.84375 4.371094 C 24.871094 4.382812 24.894531 4.386719 24.925781 4.386719 C 24.988281 4.386719 25.054688 4.351562 25.082031 4.289062 C 25.128906 4.199219 25.09375 4.089844 25.003906 4.042969 " fill-opacity="1" fill-rule="nonzero"/></g></svg>