<svg xmlns="http://www.w3.org/2000/svg" xmlns:xlink="http://www.w3.org/1999/xlink" width="40" zoomAndPan="magnify" viewBox="0 0 30 30.000001" height="40" preserveAspectRatio="xMidYMid meet" version="1.0"><defs><clipPath id="7e176bbded"><path d="M 8 2.738281 L 22 2.738281 L 22 16 L 8 16 Z M 8 2.738281 " clip-rule="nonzero"/></clipPath><clipPath id="677c4e55b4"><path d="M 13 24 L 17 24 L 17 25.964844 L 13 25.964844 Z M 13 24 " clip-rule="nonzero"/></clipPath></defs><g clip-path="url(#7e176bbded)"><path fill="#ffffff" d="M 19.28125 3.039062 C 18.882812 2.894531 18.449219 2.804688 18 2.804688 C 17.328125 2.804688 16.660156 2.988281 16.082031 3.332031 C 15.738281 3.527344 15.394531 3.621094 14.996094 3.621094 C 14.546875 3.621094 14.039062 3.476562 13.496094 3.222656 C 12.953125 2.933594 12.359375 2.789062 11.761719 2.789062 C 10.496094 2.789062 9.410156 3.402344 8.796875 4.488281 C 7.640625 6.457031 8.382812 9.039062 9.449219 10.792969 C 9.519531 10.9375 9.648438 11.589844 9.664062 12.746094 C 9.664062 13.179688 9.988281 13.539062 10.386719 13.613281 L 10.386719 14.894531 C 10.386719 15.402344 10.785156 15.796875 11.292969 15.796875 L 18.523438 15.796875 C 19.027344 15.796875 19.425781 15.402344 19.425781 14.894531 L 19.425781 13.613281 C 19.84375 13.523438 20.148438 13.160156 20.148438 12.746094 C 20.167969 11.589844 20.292969 10.9375 20.367188 10.792969 C 21.433594 9.039062 22.15625 6.472656 21 4.488281 C 20.601562 3.816406 20.003906 3.3125 19.28125 3.039062 Z M 18.683594 14.894531 C 18.683594 15.003906 18.613281 15.074219 18.503906 15.074219 L 11.273438 15.074219 C 11.164062 15.074219 11.09375 15.003906 11.09375 14.894531 L 11.09375 13.628906 L 18.683594 13.628906 Z M 19.734375 10.414062 C 19.480469 10.847656 19.425781 12.203125 19.410156 12.726562 C 19.410156 12.816406 19.316406 12.90625 19.226562 12.90625 L 10.550781 12.90625 C 10.460938 12.90625 10.371094 12.835938 10.371094 12.726562 C 10.371094 12.183594 10.316406 10.847656 10.042969 10.414062 C 9.105469 8.859375 8.398438 6.566406 9.410156 4.847656 C 9.9375 3.945312 10.839844 3.511719 11.761719 3.511719 C 12.25 3.511719 12.71875 3.621094 13.171875 3.855469 C 13.226562 3.890625 13.296875 3.910156 13.371094 3.945312 C 13.371094 3.945312 13.386719 3.960938 13.386719 3.960938 C 13.480469 4.054688 15.285156 5.515625 17.238281 5.515625 C 17.636719 5.515625 18.050781 5.445312 18.46875 5.300781 C 18.648438 5.226562 18.757812 5.027344 18.683594 4.828125 C 18.613281 4.648438 18.394531 4.539062 18.214844 4.613281 C 17.257812 4.972656 16.191406 4.703125 15.359375 4.304688 C 15.738281 4.269531 16.101562 4.144531 16.460938 3.945312 C 16.949219 3.671875 17.492188 3.527344 18.015625 3.527344 C 18.359375 3.527344 18.703125 3.582031 19.027344 3.710938 C 19.570312 3.910156 20.042969 4.289062 20.367188 4.847656 C 21.378906 6.566406 20.671875 8.859375 19.734375 10.414062 Z M 19.734375 10.414062 " fill-opacity="1" fill-rule="nonzero"/></g><g clip-path="url(#677c4e55b4)"><path fill="#ffffff" d="M 15.992188 24.292969 C 15.863281 24.816406 15.414062 25.195312 14.890625 25.195312 C 14.363281 25.195312 13.914062 24.832031 13.785156 24.292969 L 13.75 24.109375 L 13.007812 24.109375 L 13.097656 24.453125 C 13.296875 25.304688 14.039062 25.917969 14.90625 25.917969 C 15.773438 25.917969 16.515625 25.320312 16.714844 24.453125 L 16.804688 24.109375 L 16.0625 24.109375 Z M 15.992188 24.292969 " fill-opacity="1" fill-rule="nonzero"/></g><path fill="#ffffff" d="M 17.601562 22.125 L 17.238281 22.125 L 17.367188 21.582031 L 16.625 21.582031 L 16.371094 22.664062 L 13.40625 22.664062 L 13.152344 21.582031 L 12.414062 21.582031 L 12.539062 22.125 L 12.175781 22.125 C 11.980469 22.125 11.816406 22.285156 11.816406 22.484375 C 11.816406 22.683594 11.980469 22.847656 12.175781 22.847656 L 12.71875 22.847656 L 12.773438 23.097656 L 12.847656 23.386719 C 12.863281 23.386719 12.902344 23.386719 12.917969 23.386719 L 16.878906 23.386719 C 16.894531 23.386719 16.933594 23.386719 16.949219 23.386719 L 17.023438 23.097656 L 17.058594 22.847656 L 17.601562 22.847656 C 17.800781 22.847656 17.960938 22.683594 17.960938 22.484375 C 17.960938 22.285156 17.800781 22.125 17.601562 22.125 Z M 17.601562 22.125 " fill-opacity="1" fill-rule="nonzero"/><path fill="#ffffff" d="M 18.324219 19.414062 L 17.855469 19.414062 L 17.945312 19.050781 L 17.203125 19.050781 L 16.949219 20.136719 L 12.828125 20.136719 L 12.574219 19.050781 L 11.832031 19.050781 L 11.925781 19.414062 L 11.453125 19.414062 C 11.253906 19.414062 11.09375 19.574219 11.09375 19.773438 C 11.09375 19.972656 11.253906 20.136719 11.453125 20.136719 L 12.085938 20.136719 L 12.25 20.859375 L 17.527344 20.859375 L 17.691406 20.136719 L 18.324219 20.136719 C 18.523438 20.136719 18.683594 19.972656 18.683594 19.773438 C 18.683594 19.574219 18.523438 19.414062 18.324219 19.414062 Z M 18.324219 19.414062 " fill-opacity="1" fill-rule="nonzero"/><path fill="#ffffff" d="M 18.867188 16.882812 L 18.449219 16.882812 L 18.539062 16.519531 L 17.800781 16.519531 L 17.546875 17.605469 L 12.230469 17.605469 L 11.980469 16.519531 L 11.238281 16.519531 L 11.328125 16.882812 L 10.910156 16.882812 C 10.714844 16.882812 10.550781 17.046875 10.550781 17.246094 C 10.550781 17.441406 10.714844 17.605469 10.910156 17.605469 L 11.492188 17.605469 L 11.652344 18.328125 L 18.105469 18.328125 L 18.269531 17.605469 L 18.867188 17.605469 C 19.066406 17.605469 19.226562 17.441406 19.226562 17.246094 C 19.226562 17.046875 19.066406 16.882812 18.867188 16.882812 Z M 18.867188 16.882812 " fill-opacity="1" fill-rule="nonzero"/></svg>